<svg width="14" height="13" viewBox="0 0 14 13" fill="none" xmlns="http://www.w3.org/2000/svg">
<path fill-rule="evenodd" clip-rule="evenodd" d="M7.15646 0.692654C8.24046 0.00732056 9.68046 -0.182013 10.9245 0.216654C13.6305 1.08932 14.4705 4.03932 13.7191 6.38665C12.5598 10.0733 7.60846 12.8233 7.39846 12.9387C7.3238 12.98 7.24113 13.0007 7.15846 13.0007C7.0758 13.0007 6.9938 12.9807 6.91913 12.94C6.71046 12.826 1.79513 10.1167 0.597131 6.38732C0.596465 6.38732 0.596465 6.38665 0.596465 6.38665C-0.155535 4.03865 0.681798 1.08799 3.38513 0.216654C4.65446 -0.194013 6.0378 -0.0133461 7.15646 0.692654ZM3.6918 1.16865C1.50446 1.87399 0.955131 4.22665 1.54913 6.08199C2.4838 8.98999 6.17646 11.3413 7.1578 11.9233C8.14246 11.3353 11.8618 8.95799 12.7665 6.08465C13.3605 4.22732 12.8091 1.87465 10.6185 1.16865C9.55713 0.827987 8.31913 1.03532 7.46446 1.69665C7.2858 1.83399 7.0378 1.83665 6.8578 1.70065C5.95246 1.01999 4.7698 0.820654 3.6918 1.16865ZM9.97846 2.49259C10.8871 2.78659 11.5238 3.59125 11.6018 4.54259C11.6238 4.81792 11.4191 5.05925 11.1438 5.08125C11.1298 5.08259 11.1165 5.08325 11.1025 5.08325C10.8445 5.08325 10.6258 4.88525 10.6045 4.62392C10.5605 4.07592 10.1938 3.61325 9.6718 3.44459C9.40846 3.35925 9.26446 3.07725 9.34913 2.81525C9.43513 2.55259 9.71446 2.40992 9.97846 2.49259Z" fill="#272830"/>
</svg>
