<svg width="15" height="15" viewBox="0 0 15 15" fill="none" xmlns="http://www.w3.org/2000/svg">
<path fill-rule="evenodd" clip-rule="evenodd" d="M7.83228 0.66687C9.74761 0.66687 11.5476 1.41154 12.8996 2.7642C15.6943 5.55887 15.6943 10.1055 12.8996 12.9002C11.5296 14.2709 9.68495 14.9962 7.81628 14.9962C6.79761 14.9962 5.77228 14.7809 4.81295 14.3369C4.53028 14.2235 4.26561 14.1169 4.07561 14.1169C3.85695 14.1182 3.56295 14.2195 3.27895 14.3175C2.69628 14.5175 1.97095 14.7669 1.43428 14.2322C0.899615 13.6969 1.14628 12.9735 1.34495 12.3915C1.44295 12.1049 1.54361 11.8089 1.54361 11.5849C1.54361 11.4009 1.45495 11.1662 1.31895 10.8282C0.0702812 8.13154 0.647615 4.88154 2.76561 2.76487C4.11761 1.4122 5.91695 0.66687 7.83228 0.66687ZM7.83295 1.66687C6.18428 1.66687 4.63561 2.3082 3.47228 3.4722C1.64961 5.29354 1.15361 8.0902 2.23695 10.4322C2.39295 10.8182 2.54361 11.1942 2.54361 11.5849C2.54361 11.9749 2.40961 12.3675 2.29161 12.7142C2.19428 12.9995 2.04695 13.4302 2.14161 13.5249C2.23428 13.6209 2.66761 13.4695 2.95361 13.3715C3.29695 13.2542 3.68628 13.1195 4.07228 13.1169C4.45895 13.1169 4.82362 13.2635 5.20961 13.4189C7.57428 14.5122 10.3709 14.0149 12.1929 12.1935C14.5969 9.7882 14.5969 5.87554 12.1929 3.47154C11.0289 2.30754 9.48095 1.66687 7.83295 1.66687Z" fill="#272830"/>
</svg>
