<svg width="12" height="15" viewBox="0 0 12 15" fill="none" xmlns="http://www.w3.org/2000/svg">
<path fill-rule="evenodd" clip-rule="evenodd" d="M7.80045 0.333344C10.0618 0.333344 11.3591 1.45268 11.3591 3.40268V13.0933C11.3591 13.5 11.1498 13.866 10.7978 14.0707C10.4471 14.276 10.0245 14.28 9.66979 14.08L5.69645 11.8353L1.68645 14.0847C1.51312 14.182 1.32312 14.2313 1.13245 14.2313C0.935786 14.2313 0.73912 14.1787 0.560453 14.0733C0.20912 13.8687 -0.000213623 13.5027 -0.000213623 13.0967V3.28068C-0.000213623 1.40734 1.29779 0.333344 3.56112 0.333344H7.80045ZM7.80045 1.33334H3.56112C1.86179 1.33334 0.999786 1.98801 0.999786 3.28068V13.0967C0.999786 13.1593 1.03579 13.1933 1.06579 13.2107C1.09579 13.2293 1.14312 13.2427 1.19779 13.212L5.45245 10.8253C5.60445 10.7407 5.79045 10.74 5.94312 10.826L10.1611 13.2087C10.2165 13.2407 10.2638 13.226 10.2938 13.208C10.3238 13.19 10.3591 13.156 10.3591 13.0933L10.3589 3.32671C10.3538 2.75293 10.2428 1.33334 7.80045 1.33334ZM8.09299 4.81901C8.36899 4.81901 8.59299 5.04301 8.59299 5.31901C8.59299 5.59501 8.36899 5.81901 8.09299 5.81901H3.21432C2.93832 5.81901 2.71432 5.59501 2.71432 5.31901C2.71432 5.04301 2.93832 4.81901 3.21432 4.81901H8.09299Z" fill="#272830"/>
</svg>
